<svg width="74" height="18" viewBox="0 0 74 18" fill="none" xmlns="http://www.w3.org/2000/svg">
<path d="M4.78951 15.4671C2.40823 15.4534 0.438477 10.5924 0.438477 8.11682C0.438477 4.07295 3.47207 3.18763 4.6412 3.18763C5.16807 3.18763 5.73066 3.39454 6.22688 3.57763C6.57388 3.70535 6.93276 3.8372 7.13235 3.8372C7.25182 3.8372 7.53335 3.72504 7.78191 3.62663C8.31201 3.4156 8.97163 3.15332 9.73976 3.15332C9.74113 3.15332 9.74298 3.15332 9.74432 3.15332C10.3179 3.15332 12.0569 3.2792 13.1025 4.84932L13.3474 5.21735L12.9949 5.48332C12.4914 5.86326 11.5726 6.55632 11.5726 7.92916C11.5726 9.55513 12.6131 10.1804 13.113 10.4812C13.3337 10.6139 13.5621 10.7508 13.5621 11.0502C13.5621 11.2457 12.002 15.4429 9.73654 15.4429C9.1822 15.4429 8.79035 15.2763 8.44473 15.1293C8.09501 14.9805 7.79332 14.8524 7.29482 14.8524C7.04213 14.8524 6.7226 14.9719 6.38432 15.0987C5.92204 15.2712 5.39879 15.4671 4.80507 15.4671H4.78951Z" fill="white"/>
<path d="M21.592 5.00012H22.642L21.214 0.800117H19.99L18.562 5.00012H19.612L19.822 4.34012H21.382L21.592 5.00012ZM20.11 3.44012L20.602 1.89812L21.094 3.44012H20.11Z" fill="white"/>
<path d="M24.7669 2.00012L24.1429 3.90212L23.5189 2.00012H22.5229L23.6329 5.00012H24.6529L25.7629 2.00012H24.7669Z" fill="white"/>
<path d="M28.154 2.00012V2.28212C27.956 2.05412 27.662 1.91612 27.26 1.91612C26.474 1.91612 25.826 2.60612 25.826 3.50012C25.826 4.39412 26.474 5.08412 27.26 5.08412C27.662 5.08412 27.956 4.94612 28.154 4.71812V5.00012H29.054V2.00012H28.154ZM27.44 4.23212C27.026 4.23212 26.726 3.95012 26.726 3.50012C26.726 3.05012 27.026 2.76812 27.44 2.76812C27.854 2.76812 28.154 3.05012 28.154 3.50012C28.154 3.95012 27.854 4.23212 27.44 4.23212Z" fill="white"/>
<path d="M29.7143 5.00012H30.6143V0.620117H29.7143V5.00012Z" fill="white"/>
<path d="M31.7229 1.73612C32.0169 1.73612 32.2629 1.49012 32.2629 1.19612C32.2629 0.902117 32.0169 0.656117 31.7229 0.656117C31.4289 0.656117 31.1829 0.902117 31.1829 1.19612C31.1829 1.49012 31.4289 1.73612 31.7229 1.73612ZM31.2729 5.00012H32.1729V2.00012H31.2729V5.00012Z" fill="white"/>
<path d="M34.6255 1.91612C34.2235 1.91612 33.9295 2.05412 33.7315 2.28212V0.800117H32.8315V5.00012H33.7315V4.71812C33.9295 4.94612 34.2235 5.08412 34.6255 5.08412C35.4115 5.08412 36.0595 4.39412 36.0595 3.50012C36.0595 2.60612 35.4115 1.91612 34.6255 1.91612ZM34.4455 4.23212C34.0315 4.23212 33.7315 3.95012 33.7315 3.50012C33.7315 3.05012 34.0315 2.76812 34.4455 2.76812C34.8595 2.76812 35.1595 3.05012 35.1595 3.50012C35.1595 3.95012 34.8595 4.23212 34.4455 4.23212Z" fill="white"/>
<path d="M36.5697 5.00012H37.4697V0.620117H36.5697V5.00012Z" fill="white"/>
<path d="M38.9323 3.86012H41.0623C41.0863 3.74612 41.0983 3.62612 41.0983 3.50012C41.0983 2.59412 40.4503 1.91612 39.5743 1.91612C38.6263 1.91612 37.9783 2.60612 37.9783 3.50012C37.9783 4.39412 38.6143 5.08412 39.6403 5.08412C40.2103 5.08412 40.6543 4.87412 40.9483 4.46612L40.2283 4.05212C40.1083 4.18412 39.8983 4.28012 39.6523 4.28012C39.3223 4.28012 39.0463 4.17212 38.9323 3.86012ZM38.9143 3.18812C38.9983 2.88212 39.2263 2.71412 39.5683 2.71412C39.8383 2.71412 40.1083 2.84012 40.2043 3.18812H38.9143Z" fill="white"/>
<path d="M44.5488 5.08412C45.4308 5.08412 46.1388 4.39412 46.1388 3.50012C46.1388 2.60612 45.4308 1.91612 44.5488 1.91612C43.6668 1.91612 42.9588 2.60612 42.9588 3.50012C42.9588 4.39412 43.6668 5.08412 44.5488 5.08412ZM44.5488 4.20812C44.1588 4.20812 43.8588 3.92612 43.8588 3.50012C43.8588 3.07412 44.1588 2.79212 44.5488 2.79212C44.9388 2.79212 45.2388 3.07412 45.2388 3.50012C45.2388 3.92612 44.9388 4.20812 44.5488 4.20812Z" fill="white"/>
<path d="M48.4059 1.91612C48.0099 1.91612 47.7099 2.06012 47.5479 2.28212V2.00012H46.6479V5.00012H47.5479V3.36212C47.5479 2.93612 47.7759 2.74412 48.1059 2.74412C48.3939 2.74412 48.6279 2.91812 48.6279 3.29012V5.00012H49.5279V3.15812C49.5279 2.34812 49.0119 1.91612 48.4059 1.91612Z" fill="white"/>
<path d="M53.4039 2.86412V2.00012H52.7859V1.16012L51.8859 1.43012V2.00012H51.4059V2.86412H51.8859V3.92612C51.8859 4.76612 52.2279 5.12012 53.4039 5.00012V4.18412C53.0079 4.20812 52.7859 4.18412 52.7859 3.92612V2.86412H53.4039Z" fill="white"/>
<path d="M55.6715 1.91612C55.2755 1.91612 54.9755 2.06012 54.8135 2.28212V0.800117H53.9135V5.00012H54.8135V3.36212C54.8135 2.93612 55.0415 2.74412 55.3715 2.74412C55.6595 2.74412 55.8935 2.91812 55.8935 3.29012V5.00012H56.7935V3.15812C56.7935 2.34812 56.2775 1.91612 55.6715 1.91612Z" fill="white"/>
<path d="M58.2155 3.86012H60.3455C60.3695 3.74612 60.3815 3.62612 60.3815 3.50012C60.3815 2.59412 59.7335 1.91612 58.8575 1.91612C57.9095 1.91612 57.2615 2.60612 57.2615 3.50012C57.2615 4.39412 57.8975 5.08412 58.9235 5.08412C59.4935 5.08412 59.9375 4.87412 60.2315 4.46612L59.5115 4.05212C59.3915 4.18412 59.1815 4.28012 58.9355 4.28012C58.6055 4.28012 58.3295 4.17212 58.2155 3.86012ZM58.1975 3.18812C58.2815 2.88212 58.5095 2.71412 58.8515 2.71412C59.1215 2.71412 59.3915 2.84012 59.4875 3.18812H58.1975Z" fill="white"/>
<path d="M23.612 16.0001H25.362L22.982 9.00012H20.942L18.562 16.0001H20.312L20.662 14.9001H23.262L23.612 16.0001ZM21.142 13.4001L21.962 10.8301L22.782 13.4001H21.142Z" fill="white"/>
<path d="M28.8989 10.8601C28.2289 10.8601 27.7389 11.0901 27.4089 11.4701V11.0001H25.9089V18.0001H27.4089V15.5301C27.7389 15.9101 28.2289 16.1401 28.8989 16.1401C30.2089 16.1401 31.2889 14.9901 31.2889 13.5001C31.2889 12.0101 30.2089 10.8601 28.8989 10.8601ZM28.5989 14.7201C27.9089 14.7201 27.4089 14.2501 27.4089 13.5001C27.4089 12.7501 27.9089 12.2801 28.5989 12.2801C29.2889 12.2801 29.7889 12.7501 29.7889 13.5001C29.7889 14.2501 29.2889 14.7201 28.5989 14.7201Z" fill="white"/>
<path d="M35.1294 10.8601C34.4594 10.8601 33.9694 11.0901 33.6394 11.4701V11.0001H32.1394V18.0001H33.6394V15.5301C33.9694 15.9101 34.4594 16.1401 35.1294 16.1401C36.4394 16.1401 37.5194 14.9901 37.5194 13.5001C37.5194 12.0101 36.4394 10.8601 35.1294 10.8601ZM34.8294 14.7201C34.1394 14.7201 33.6394 14.2501 33.6394 13.5001C33.6394 12.7501 34.1394 12.2801 34.8294 12.2801C35.5194 12.2801 36.0194 12.7501 36.0194 13.5001C36.0194 14.2501 35.5194 14.7201 34.8294 14.7201Z" fill="white"/>
<path d="M38.3698 16.0001H39.8698V8.70012H38.3698V16.0001Z" fill="white"/>
<path d="M42.3075 14.1001H45.8575C45.8975 13.9101 45.9175 13.7101 45.9175 13.5001C45.9175 11.9901 44.8375 10.8601 43.3775 10.8601C41.7975 10.8601 40.7175 12.0101 40.7175 13.5001C40.7175 14.9901 41.7775 16.1401 43.4875 16.1401C44.4375 16.1401 45.1775 15.7901 45.6675 15.1101L44.4675 14.4201C44.2675 14.6401 43.9175 14.8001 43.5075 14.8001C42.9575 14.8001 42.4975 14.6201 42.3075 14.1001ZM42.2775 12.9801C42.4175 12.4701 42.7975 12.1901 43.3675 12.1901C43.8175 12.1901 44.2675 12.4001 44.4275 12.9801H42.2775Z" fill="white"/>
<path d="M51.7683 16.1401C53.2883 16.1401 54.3683 15.3401 54.3683 13.9901C54.3683 12.5101 53.1783 12.1401 52.1183 11.8201C51.0283 11.4901 50.8583 11.2701 50.8583 10.9501C50.8583 10.6701 51.1083 10.4201 51.6083 10.4201C52.2483 10.4201 52.5783 10.7301 52.8183 11.2301L54.1683 10.4401C53.6583 9.41012 52.7583 8.86012 51.6083 8.86012C50.3983 8.86012 49.2583 9.64012 49.2583 10.9901C49.2583 12.3301 50.2783 12.8301 51.3183 13.1201C52.3683 13.4101 52.7683 13.5801 52.7683 14.0101C52.7683 14.2801 52.5783 14.5801 51.8183 14.5801C51.0283 14.5801 50.5983 14.1901 50.3483 13.6101L48.9683 14.4101C49.3583 15.4401 50.2983 16.1401 51.7683 16.1401Z" fill="white"/>
<path d="M57.9014 12.4401V11.0001H56.8714V9.60012L55.3714 10.0501V11.0001H54.5714V12.4401H55.3714V14.2101C55.3714 15.6101 55.9414 16.2001 57.9014 16.0001V14.6401C57.2414 14.6801 56.8714 14.6401 56.8714 14.2101V12.4401H57.9014Z" fill="white"/>
<path d="M61.053 16.1401C62.523 16.1401 63.703 14.9901 63.703 13.5001C63.703 12.0101 62.523 10.8601 61.053 10.8601C59.583 10.8601 58.403 12.0101 58.403 13.5001C58.403 14.9901 59.583 16.1401 61.053 16.1401ZM61.053 14.6801C60.403 14.6801 59.903 14.2101 59.903 13.5001C59.903 12.7901 60.403 12.3201 61.053 12.3201C61.703 12.3201 62.203 12.7901 62.203 13.5001C62.203 14.2101 61.703 14.6801 61.053 14.6801Z" fill="white"/>
<path d="M66.0515 11.8901V11.0001H64.5515V16.0001H66.0515V13.7401C66.0515 12.7501 66.9315 12.5001 67.5515 12.6001V10.9001C66.9215 10.9001 66.2515 11.2201 66.0515 11.8901Z" fill="white"/>
<path d="M69.4462 14.1001H72.9962C73.0362 13.9101 73.0562 13.7101 73.0562 13.5001C73.0562 11.9901 71.9762 10.8601 70.5162 10.8601C68.9361 10.8601 67.8562 12.0101 67.8562 13.5001C67.8562 14.9901 68.9162 16.1401 70.6262 16.1401C71.5762 16.1401 72.3162 15.7901 72.8062 15.1101L71.6062 14.4201C71.4062 14.6401 71.0562 14.8001 70.6462 14.8001C70.0962 14.8001 69.6362 14.6201 69.4462 14.1001ZM69.4162 12.9801C69.5562 12.4701 69.9362 12.1901 70.5062 12.1901C70.9562 12.1901 71.4062 12.4001 71.5662 12.9801H69.4162Z" fill="white"/>
</svg>
