<svg width="79" height="20" viewBox="0 0 79 20" fill="none" xmlns="http://www.w3.org/2000/svg">
<path d="M11.5075 10.0013L1.46393 19.6725C0.993605 19.3511 0.714365 18.8165 0.719303 18.2468V1.75578C0.714365 1.18614 0.993605 0.651502 1.46393 0.330078L11.5075 10.0013Z" fill="white"/>
<path d="M15.0217 6.62364L11.5074 10.0018L1.46387 0.330532C1.50171 0.301203 1.54113 0.273918 1.58191 0.248803C2.11272 -0.0729183 2.77574 -0.0833047 3.31639 0.22156L15.0217 6.62364Z" fill="white"/>
<path d="M15.0217 13.3801L3.31639 19.7822C2.77455 20.0823 2.11404 20.0719 1.58191 19.7549C1.54113 19.7298 1.50171 19.7025 1.46387 19.6732L11.5074 10.002L15.0217 13.3801Z" fill="white"/>
<path d="M30.8055 5.1921H27.9975V6.3121H29.4935C29.2935 6.8481 28.8055 7.1761 28.0615 7.1761C26.9735 7.1761 26.3015 6.4801 26.3015 5.5281C26.3015 4.5441 27.0055 3.8481 27.9495 3.8481C28.5815 3.8481 29.0855 4.1361 29.3175 4.5041L30.4055 3.8801C29.9335 3.1281 29.0295 2.6001 27.9575 2.6001C26.3095 2.6001 25.0215 3.8961 25.0215 5.5201C25.0215 7.1281 26.2855 8.4241 28.0455 8.4241C29.6135 8.4241 30.8055 7.3841 30.8055 5.6721V5.1921Z" fill="white"/>
<path d="M32.4071 7.0801V6.0881H34.4071V4.8721H32.4071V3.9441H34.6071V2.7121H31.1271V8.3121H34.6471V7.0801H32.4071Z" fill="white"/>
<path d="M38.7293 2.7121H34.5693V3.9441H36.0093V8.3121H37.2893V3.9441H38.7293V2.7121Z" fill="white"/>
<path d="M40.4896 2.7121V8.3121H41.7696V2.7121H40.4896Z" fill="white"/>
<path d="M46.0918 2.7121H41.9318V3.9441H43.3718V8.3121H44.6518V3.9441H46.0918V2.7121Z" fill="white"/>
<path d="M50.5241 8.4241C52.1321 8.4241 53.4361 7.1601 53.4361 5.5121C53.4361 3.8641 52.1321 2.6001 50.5241 2.6001C48.9161 2.6001 47.6121 3.8641 47.6121 5.5121C47.6121 7.1601 48.9161 8.4241 50.5241 8.4241ZM50.5241 7.1761C49.6121 7.1761 48.8921 6.5121 48.8921 5.5121C48.8921 4.5121 49.6121 3.8481 50.5241 3.8481C51.4361 3.8481 52.1561 4.5121 52.1561 5.5121C52.1561 6.5121 51.4361 7.1761 50.5241 7.1761Z" fill="white"/>
<path d="M56.8768 2.7121V5.7521L54.7168 2.7121H53.7568V8.3121H55.0368V5.2721L57.1968 8.3121H58.1568V2.7121H56.8768Z" fill="white"/>
<path d="M30.8055 14.7041V14.9201C30.8055 15.6188 30.5575 16.2081 30.0615 16.6881C29.5655 17.1628 28.9122 17.4001 28.1015 17.4001C27.2482 17.4001 26.5442 17.1228 25.9895 16.5681C25.4348 16.0081 25.1575 15.3228 25.1575 14.5121C25.1575 13.7014 25.4322 13.0188 25.9815 12.4641C26.5308 11.9041 27.2268 11.6241 28.0695 11.6241C28.5815 11.6241 29.0508 11.7468 29.4775 11.9921C29.9095 12.2374 30.2428 12.5654 30.4775 12.9761L30.1015 13.2001C29.9148 12.8481 29.6375 12.5654 29.2695 12.3521C28.9068 12.1388 28.5068 12.0321 28.0695 12.0321C27.3442 12.0321 26.7468 12.2721 26.2775 12.7521C25.8135 13.2268 25.5815 13.8134 25.5815 14.5121C25.5815 15.2108 25.8162 15.8001 26.2855 16.2801C26.7548 16.7548 27.3602 16.9921 28.1015 16.9921C28.7575 16.9921 29.2882 16.8134 29.6935 16.4561C30.0988 16.0988 30.3255 15.6481 30.3735 15.1041H27.9975V14.7041H30.8055Z" fill="white"/>
<path d="M36.4841 16.5601C35.9241 17.1201 35.2414 17.4001 34.4361 17.4001C33.6308 17.4001 32.9481 17.1201 32.3881 16.5601C31.8281 15.9948 31.5481 15.3121 31.5481 14.5121C31.5481 13.7121 31.8281 13.0321 32.3881 12.4721C32.9481 11.9068 33.6308 11.6241 34.4361 11.6241C35.2414 11.6241 35.9241 11.9068 36.4841 12.4721C37.0441 13.0321 37.3241 13.7121 37.3241 14.5121C37.3241 15.3121 37.0441 15.9948 36.4841 16.5601ZM32.6841 16.2721C33.1641 16.7521 33.7481 16.9921 34.4361 16.9921C35.1241 16.9921 35.7054 16.7521 36.1801 16.2721C36.6601 15.7868 36.9001 15.2001 36.9001 14.5121C36.9001 13.8241 36.6601 13.2401 36.1801 12.7601C35.7054 12.2748 35.1241 12.0321 34.4361 12.0321C33.7481 12.0321 33.1641 12.2748 32.6841 12.7601C32.2094 13.2401 31.9721 13.8241 31.9721 14.5121C31.9721 15.2001 32.2094 15.7868 32.6841 16.2721Z" fill="white"/>
<path d="M43.0154 16.5601C42.4554 17.1201 41.7727 17.4001 40.9674 17.4001C40.162 17.4001 39.4794 17.1201 38.9194 16.5601C38.3594 15.9948 38.0794 15.3121 38.0794 14.5121C38.0794 13.7121 38.3594 13.0321 38.9194 12.4721C39.4794 11.9068 40.162 11.6241 40.9674 11.6241C41.7727 11.6241 42.4554 11.9068 43.0154 12.4721C43.5754 13.0321 43.8554 13.7121 43.8554 14.5121C43.8554 15.3121 43.5754 15.9948 43.0154 16.5601ZM39.2154 16.2721C39.6954 16.7521 40.2794 16.9921 40.9674 16.9921C41.6554 16.9921 42.2367 16.7521 42.7114 16.2721C43.1914 15.7868 43.4314 15.2001 43.4314 14.5121C43.4314 13.8241 43.1914 13.2401 42.7114 12.7601C42.2367 12.2748 41.6554 12.0321 40.9674 12.0321C40.2794 12.0321 39.6954 12.2748 39.2154 12.7601C38.7407 13.2401 38.5034 13.8241 38.5034 14.5121C38.5034 15.2001 38.7407 15.7868 39.2154 16.2721Z" fill="white"/>
<path d="M50.2586 14.7041V14.9201C50.2586 15.6188 50.0106 16.2081 49.5146 16.6881C49.0186 17.1628 48.3653 17.4001 47.5546 17.4001C46.7013 17.4001 45.9973 17.1228 45.4426 16.5681C44.8879 16.0081 44.6106 15.3228 44.6106 14.5121C44.6106 13.7014 44.8853 13.0188 45.4346 12.4641C45.9839 11.9041 46.6799 11.6241 47.5226 11.6241C48.0346 11.6241 48.5039 11.7468 48.9306 11.9921C49.3626 12.2374 49.6959 12.5654 49.9306 12.9761L49.5546 13.2001C49.3679 12.8481 49.0906 12.5654 48.7226 12.3521C48.3599 12.1388 47.9599 12.0321 47.5226 12.0321C46.7973 12.0321 46.1999 12.2721 45.7306 12.7521C45.2666 13.2268 45.0346 13.8134 45.0346 14.5121C45.0346 15.2108 45.2693 15.8001 45.7386 16.2801C46.2079 16.7548 46.8133 16.9921 47.5546 16.9921C48.2106 16.9921 48.7413 16.8134 49.1466 16.4561C49.5519 16.0988 49.7786 15.6481 49.8266 15.1041H47.4506V14.7041H50.2586Z" fill="white"/>
<path d="M51.7452 16.9121H54.3852V17.3121H51.3212V11.7121H51.7452V16.9121Z" fill="white"/>
<path d="M55.6905 16.9121H58.4905V17.3121H55.2665V11.7121H58.4505V12.1121H55.6905V14.2881H58.2505V14.6881H55.6905V16.9121Z" fill="white"/>
<path d="M63.569 11.7121C64.0703 11.7121 64.4863 11.8774 64.817 12.2081C65.1477 12.5388 65.313 12.9521 65.313 13.4481C65.313 13.9441 65.1477 14.3574 64.817 14.6881C64.4863 15.0134 64.0703 15.1761 63.569 15.1761H62.089V17.3121H61.665V11.7121H63.569ZM63.569 14.7761C63.953 14.7761 64.2677 14.6508 64.513 14.4001C64.7637 14.1494 64.889 13.8321 64.889 13.4481C64.889 13.0588 64.7637 12.7388 64.513 12.4881C64.2677 12.2374 63.953 12.1121 63.569 12.1121H62.089V14.7761H63.569Z" fill="white"/>
<path d="M66.7843 16.9121H69.4243V17.3121H66.3603V11.7121H66.7843V16.9121Z" fill="white"/>
<path d="M74.2299 17.3121L73.6859 15.8881H70.8779L70.3339 17.3121H69.8859L72.0619 11.7121H72.5099L74.6779 17.3121H74.2299ZM71.0379 15.4881H73.5339L72.2859 12.2321L71.0379 15.4881Z" fill="white"/>
<path d="M78.6624 11.7121L76.6224 15.0081V17.3121H76.1984V15.0081L74.1584 11.7121H74.6384L76.4144 14.6001L78.1824 11.7121H78.6624Z" fill="white"/>
</svg>
